inDegrees=no
num_controls=7
num_derivatives=13
num_iterations=135
num_multipliers=7
num_parameters=0
num_slacks=7
num_states=26
objective=5.341328
objective_accelerations=0.367020
objective_balance=0.020920
objective_effort=0.422114
objective_height=4.481543
objective_ligament=0.049731
solver_duration=1427.487693
status=Solve_Succeeded
success=true
DataType=double
version=3
OpenSimVersion=4.4-2022-07-23-0e9fedc
endheader
time	/jointset/ground_pelvis/pelvis_tilt/value	/jointset/ground_pelvis/pelvis_tx/value	/jointset/ground_pelvis/pelvis_ty/value	/jointset/hip_l/hip_flexion_l/value	/jointset/hip_l/hip_adduction_l/value	/jointset/hip_l/hip_rotation_l/value	/jointset/back/lumbar_extension/value	/jointset/patellofemoral_l/patellar_flexion_l/value	/jointset/knee_l/knee_flexion_l/value	/jointset/knee_l/knee_adduction_l/value	/jointset/knee_l/knee_rotation_l/value	/jointset/ankle_l/ankle_angle_l/value	/jointset/subtalar_l/subtalar_angle_l/value	/jointset/ground_pelvis/pelvis_tilt/speed	/jointset/ground_pelvis/pelvis_tx/speed	/jointset/ground_pelvis/pelvis_ty/speed	/jointset/hip_l/hip_flexion_l/speed	/jointset/hip_l/hip_adduction_l/speed	/jointset/hip_l/hip_rotation_l/speed	/jointset/back/lumbar_extension/speed	/jointset/patellofemoral_l/patellar_flexion_l/speed	/jointset/knee_l/knee_flexion_l/speed	/jointset/knee_l/knee_adduction_l/speed	/jointset/knee_l/knee_rotation_l/speed	/jointset/ankle_l/ankle_angle_l/speed	/jointset/subtalar_l/subtalar_angle_l/speed	/forceset/tau_hip_flexion_l	/forceset/tau_hip_adduction_l	/forceset/tau_hip_rotation_l	/forceset/tau_knee_flexion_l	/forceset/tau_ankle_angle_l	/forceset/tau_subtalar_angle_l	/forceset/tau_lumbar_extension	lambda_cid13_p0	lambda_cid13_p1	lambda_cid13_p2	lambda_cid13_p3	lambda_cid13_p4	lambda_cid13_p5	lambda_cid14_p0	/jointset/ground_pelvis/pelvis_tilt/accel	/jointset/ground_pelvis/pelvis_tx/accel	/jointset/ground_pelvis/pelvis_ty/accel	/jointset/hip_l/hip_flexion_l/accel	/jointset/hip_l/hip_adduction_l/accel	/jointset/hip_l/hip_rotation_l/accel	/jointset/back/lumbar_extension/accel	/jointset/patellofemoral_l/patellar_flexion_l/accel	/jointset/knee_l/knee_flexion_l/accel	/jointset/knee_l/knee_adduction_l/accel	/jointset/knee_l/knee_rotation_l/accel	/jointset/ankle_l/ankle_angle_l/accel	/jointset/subtalar_l/subtalar_angle_l/accel	gamma_cid13_p0	gamma_cid13_p1	gamma_cid13_p2	gamma_cid13_p3	gamma_cid13_p4	gamma_cid13_p5	gamma_cid14_p0
1	-0.08758708027787224	-0.06818882237785651	0.7515884926248938	1.115084033848957	-0.3338596259722258	-0.0007137714405962141	-0.9599190667268153	1.135063096560737	1.135063096560343	-0.09967805167992963	-0.17435359383139	0.1846922743831811	0.02038789546970246	0.1087011658269878	0.02763869525385347	0.06401060309905184	-0.294434859407961	-0.000317043870112329	-0.06430936840058511	-0.003003800190811021	-0.1668315670457904	-0.1668315670457944	-0.001312428801795096	5.129243290767819e-05	0.009750476365364346	0.004314058513884691	-0.3461825611316158	0.02071785876993055	-0.003820716077201967	-0.3103650174840706	0.07879615249347574	0.0422618185363734	0.4078750583684807	-24.03589429059064	-14.74619721443424	2.582441399873205	6.492491014719733	-776.5884311515549	-74.80843914497287	-2.409395745402165	0.7604557388621037	0.1398248937843135	1.100110454542475	-4.030800344939618	-0.005181861865573424	-1.372001766248569	0.3968141154543451	-3.981134602143078	-3.98113460214304	-0.1930531855211715	-0.001781503013745006	-0.9856762599791429	-0.3547064244002009	-9.37378114314265e-09	-1.013603133798422e-08	3.512917194630603e-08	5.031913448324103e-09	-2.240331872275532e-08	3.912036983289255e-08	-9.419999716519959e-09
1.01	-0.08646248167927667	-0.06790537545623519	0.752283415854165	1.111938986282156	-0.3338625071012302	-0.0014256147472239	-0.9599283042678987	1.133196107456839	1.133196107456639	-0.09969976575402859	-0.1743525780932301	0.1847406772728845	0.02041402756680857	0.1162160490869334	0.02905898969782642	0.07496609635720435	-0.3345677269898971	-0.0002525846282754936	-0.07805511830720648	0.001202226573880362	-0.2065641514836246	-0.2065641514836239	-0.003030819229344347	0.0001523132817589374	-7.121896894919389e-05	0.0009196670566341669	-0.3457639400025995	0.02092224469267552	-0.003849512825594129	-0.3099077382860475	0.0784283078844944	0.0423722993912253	0.4078725745717	-24.13560404573828	-14.79077515197695	2.60560205018116	6.396228696285801	-776.4725931607188	-74.87136755076855	-2.454010562459136	0.746627833735629	0.1443789275698421	1.092071072618814	-4.003492702433516	0.01324795490456101	-1.375246874690747	0.4393871395862621	-3.969002563082378	-3.969002563081567	-0.1613037713882726	0.01612322623551118	-0.9806156602738707	-0.3307120465108103	-1.465141613473737e-08	-1.807765358229565e-08	4.68182103884445e-08	1.051184769728118e-08	-2.858346860746149e-08	4.169093212835303e-08	-1.229226583111573e-08
1.02	-0.08526280960525398	-0.06760747614860127	0.7530876544782509	1.108392817492169	-0.3338645460102607	-0.002274792607269399	-0.9598941035044662	1.130931856068889	1.130931856068769	-0.09973867809251946	-0.1743505362770555	0.1846908233112167	0.02040643444131926	0.1237158609139116	0.03052917245637413	0.08587368206196214	-0.374659104076315	-0.0001485998786041596	-0.09177627908667968	0.005683860642930426	-0.2462840238606037	-0.2462840238605985	-0.004752081657531813	0.0002565080266450376	-0.009900893907918051	-0.002430986005550606	-0.345345318872881	0.02112663061549058	-0.003878309574996472	-0.309450459087951	0.07806046327543516	0.04248278024614715	0.4078700907755332	-24.2468016406262	-14.83283921653081	2.62778797404366	6.341532447759634	-776.509284562372	-74.92747308797819	-2.508642406865453	0.7574414522683955	0.1498025566993781	1.090528943863543	-4.022502245836034	0.002723239701297956	-1.367083940818967	0.4519355763252484	-3.978592189972049	-3.978592189972032	-0.1936275856488403	-0.001146723806851933	-0.9872721809100423	-0.3459587453870445	-1.920639003565729e-08	-2.759141314781965e-08	5.815057014147053e-08	1.396868392045499e-08	-3.380288379890244e-08	4.308699451304007e-08	-1.531187068642675e-08
1.03	-0.08398859245870312	-0.06729441867150179	0.7540007028757977	1.104446149396515	-0.3338653474654096	-0.003260987938655619	-0.9598121696986199	1.128270555541094	1.128270555541074	-0.09979487045377455	-0.1743474324297806	0.1845429034473631	0.02036565814976899	0.131088045962007	0.03211161221713169	0.09672564321382129	-0.414648832378202	-6.322578569196226e-06	-0.1054556454478213	0.01090234669177988	-0.2859661544332105	-0.2859661544332077	-0.006490941425534478	0.0003614632760966041	-0.01965744370095248	-0.005707989343605805	-0.3459642895522135	0.02146001300962014	-0.003910535949645586	-0.3086277411057037	0.07775214465420023	0.04270192044958191	0.4091619695777938	-24.35862664293131	-14.93120843783901	2.669486839582087	5.910224091455142	-777.1758388978079	-75.01544817568343	-2.573579513374896	0.7211773724003033	0.1668615759474417	1.080968731777175	-3.98335805147891	0.02078261828130553	-1.367308956743507	0.5867220431092754	-3.961530716275852	-3.961530716276093	-0.1647084282986534	0.01591228366565505	-0.9660038529036752	-0.3161306612682954	-2.375398984381522e-08	-3.712121493090705e-08	6.947929031603623e-08	1.740487628622284e-08	-3.9012495575106e-08	4.447107220476004e-08	-1.833297899827568e-08
1.04	-0.08264183939342062	-0.06696465741875851	0.7550219586910487	1.100100354032128	-0.3338645656189266	-0.004383766128181211	-0.9596720676474718	1.12521273226251	1.12521273226252	-0.09986859006394866	-0.1743433599031351	0.1842981865906972	0.02029259991818934	0.1382230446629351	0.03386992758513657	0.1075151656027559	-0.454484557844627	0.0001680604464858869	-0.119092850728209	0.01731750969838837	-0.3255885740206458	-0.3255885740206453	-0.008257531430414937	0.0004502438993341521	-0.02926029247012553	-0.008887374011796723	-0.3465832602310133	0.02179339540392838	-0.0039427623250696	-0.3078050231233915	0.07744382603294643	0.04292106065323541	0.4104538483804994	-24.48210650895007	-15.02708848837552	2.710276544370707	5.518778846493948	-777.9986615997648	-75.09719828721965	-2.649143463263197	0.7100041828347329	0.1849776781489626	1.078041191278645	-3.991701678743655	0.009144384705292347	-1.35865172466823	0.691270967876817	-3.966649992937711	-3.96664999293768	-0.1991736330244193	-0.004381649049736506	-0.9565319761375859	-0.32643501141418	-2.620678720899404e-08	-4.639746505315992e-08	7.803159254162709e-08	1.755899494271367e-08	-4.257281646927656e-08	4.256372640988904e-08	-2.060000816580314e-08
1.05	-0.08122482710611095	-0.0666164757564541	0.7561507402473499	1.095357039293176	-0.3338618629082731	-0.005642625433421829	-0.959462245598368	1.12175906570341	1.121759065703326	-0.09996015553010949	-0.1743384686169997	0.1839581326267745	0.02018822868369238	0.1451479309516936	0.03579153750184822	0.1182248516813329	-0.4941440705432094	0.0003812341540324074	-0.132667970855864	0.02480699074449446	-0.3651262374569196	-0.365126237456917	-0.01005802666696602	0.0005271161672268937	-0.03873206154087392	-0.01196899728625357	-0.3466077763243179	0.02209390668750941	-0.003980787024217679	-0.3068265961095645	0.07718761955833739	0.04316055924270448	0.4111350503306277	-24.55178784399162	-15.14433900109176	2.758024641215471	5.148579336368172	-778.2039813019469	-75.20890993676159	-2.73571886495909	0.6790069158149061	0.1995260653540896	1.064978968008341	-3.947930976430852	0.02871303621493768	-1.355307894094395	0.8018002657490279	-3.944544876186868	-3.944544876186456	-0.1708708929588068	0.01360580396708623	-0.9397370535193478	-0.2963456266154314	-2.859412199782978e-08	-5.566579168601171e-08	8.649713170631251e-08	1.761054879578961e-08	-4.608159702338359e-08	4.05535236310621e-08	-2.284347236007057e-08
1.06	-0.07973951074314904	-0.06624832331159883	0.7573861279948082	1.090218158445078	-0.3338567666260637	-0.007036909087274446	-0.9591727260202428	1.11791057843851	1.117910578438307	-0.100069802633436	-0.1743328317803583	0.1835239134359514	0.02005357728822203	0.1518838597971957	0.037864084095309	0.1288364038341537	-0.5335977796824144	0.0006467747589252473	-0.1461777204747018	0.03325701550144362	-0.404552715181775	-0.4045527151817704	-0.01187385886301362	0.0005993540054667093	-0.04809333785065294	-0.01494340620685775	-0.3466322924173403	0.02239441797136163	-0.004018811723971929	-0.30584816909569	0.07693141308377525	0.04340005783252516	0.411816252280963	-24.63310532964545	-15.2592095041301	2.805001927720167	4.815625957831879	-778.5668424161306	-75.31575308114979	-2.833702939207658	0.6722126941832632	0.2151650134989194	1.058414406127419	-3.950540966868196	0.01961776417453409	-1.34557762290481	0.8833797100452294	-3.944412850653943	-3.944412850653989	-0.2022410249237311	-0.005308534980385388	-0.9344334239435073	-0.3049921406436208	-3.102291013991152e-08	-6.504305141234721e-08	9.274219040147728e-08	1.801106798527492e-08	-4.949353036871203e-08	3.822145362999686e-08	-2.480782935441805e-08
1.07	-0.07818778427890533	-0.06585868175668122	0.7587270888012492	1.084685867708802	-0.3338487548346032	-0.008565871880020028	-0.958793926639173	1.113668467529899	1.113668467529697	-0.1001977616550185	-0.1743264995067516	0.1829966268309338	0.01988971386656408	0.158428203472927	0.04009034424440103	0.1393341277966679	-0.572814727195429	0.0009659796179835051	-0.1595998732254617	0.04266257118563013	-0.4438422147731991	-0.4438422147731977	-0.01372090384000031	0.0006661925197666692	-0.05734566820574601	-0.01780932057050274	-0.346372526950161	0.02270049625118991	-0.004060424763221466	-0.3046798894298962	0.0767382087695065	0.04366394487108617	0.4122474182861494	-24.66855061077333	-15.39627890835846	2.859601991402538	4.42508489992097	-778.5531405775101	-75.44174859048692	-2.943556819227085	0.6405588534018753	0.2302778114111541	1.042196314518388	-3.900428799443327	0.03962737437674085	-1.338314992708351	0.9931000680571136	-3.917125369149568	-3.917125369149928	-0.1763967887624726	0.01256494229861527	-0.9178900083538255	-0.2743968263535248	-3.345390324759144e-08	-7.442610545216587e-08	9.886913843336966e-08	1.843014916073947e-08	-5.290031226676501e-08	3.587226303200405e-08	-2.675734022111021e-08
1.08	-0.07657161164809734	-0.06544599334111402	0.7601723758319554	1.078762776066243	-0.3338372398890393	-0.01022861237845456	-0.958316280387167	1.109034280254224	1.109034280254008	-0.1003442832372878	-0.174319521868506	0.182377365488956	0.01969779015284598	0.1647730931140128	0.04247345622522906	0.1497016486871857	-0.611757960945465	0.001347405581169834	-0.1729332616380662	0.05302638968787085	-0.4829679885951357	-0.4829679885951375	-0.01558637100400263	0.0007284269406210764	-0.06648828524329863	-0.02055546461927743	-0.3461127614827417	0.02300657453130381	-0.004102037802910023	-0.3035116097640573	0.07654500445529616	0.04392783191001745	0.4126785842915014	-24.71562991097854	-15.5310774364526	2.913572879205224	4.069252084204244	-778.6984362092298	-75.56447307950785	-3.065757142179233	0.63232188725395	0.2465353798462615	1.032373791728141	-3.895798214272487	0.03206198500013893	-1.327824755273765	1.075032273655868	-3.911667696756411	-3.911667696756431	-0.2059254623268572	-0.006229353669527924	-0.9124907604351876	-0.2810380776695159	-3.506063400277413e-08	-8.276282198321414e-08	1.015971806868961e-07	1.827914292392161e-08	-5.53964104438888e-08	3.243984116314408e-08	-2.800848319301208e-08
